<?xml version="1.0" encoding="UTF-8" standalone="no"?>
<!-- Generator: Adobe Illustrator 23.0.0, SVG Export Plug-In . SVG Version: 6.00 Build 0)  -->

<svg
   xmlns:dc="http://purl.org/dc/elements/1.1/"
   xmlns:cc="http://creativecommons.org/ns#"
   xmlns:rdf="http://www.w3.org/1999/02/22-rdf-syntax-ns#"
   xmlns:svg="http://www.w3.org/2000/svg"
   xmlns="http://www.w3.org/2000/svg"
   xmlns:xlink="http://www.w3.org/1999/xlink"
   xmlns:sodipodi="http://sodipodi.sourceforge.net/DTD/sodipodi-0.dtd"
   xmlns:inkscape="http://www.inkscape.org/namespaces/inkscape"
   version="1.1"
   id="Layer_1"
   x="0px"
   y="0px"
   width="439"
   height="78"
   viewBox="0 0 439 78.77"
   style="enable-background:new 0 0 439 78.77;"
   xml:space="preserve"
   sodipodi:docname="ecce2020_logo.svg"
   inkscape:version="0.92.2 (5c3e80d, 2017-08-06)"><metadata
     id="metadata461"><rdf:RDF><cc:Work
         rdf:about=""><dc:format>image/svg+xml</dc:format><dc:type
           rdf:resource="http://purl.org/dc/dcmitype/StillImage" /></cc:Work></rdf:RDF></metadata><defs
     id="defs459" /><sodipodi:namedview
     pagecolor="#ffffff"
     bordercolor="#666666"
     borderopacity="1"
     objecttolerance="10"
     gridtolerance="10"
     guidetolerance="10"
     inkscape:pageopacity="0"
     inkscape:pageshadow="2"
     inkscape:window-width="1620"
     inkscape:window-height="1079"
     id="namedview457"
     showgrid="false"
     inkscape:zoom="1.8297797"
     inkscape:cx="205.92189"
     inkscape:cy="16.985274"
     inkscape:window-x="853"
     inkscape:window-y="510"
     inkscape:window-maximized="0"
     inkscape:current-layer="Layer_1" /><style
     type="text/css"
     id="style2">
	.st0{fill-rule:evenodd;clip-rule:evenodd;fill:#00263A;}
	.st1{clip-path:url(#SVGID_2_);}
	.st2{fill:none;stroke:#1A459D;stroke-width:1.7036;stroke-miterlimit:3.8637;}
	.st3{fill:none;stroke:#2F50A2;stroke-width:1.7036;stroke-miterlimit:3.8637;}
	.st4{fill:none;stroke:#314E9F;stroke-width:1.7036;stroke-miterlimit:3.8637;}
	.st5{fill:none;stroke:#334D9E;stroke-width:1.7036;stroke-miterlimit:3.8637;}
	.st6{fill:none;stroke:#384B9D;stroke-width:1.7036;stroke-miterlimit:3.8637;}
	.st7{fill:none;stroke:#3D499D;stroke-width:1.7036;stroke-miterlimit:3.8637;}
	.st8{fill:none;stroke:#42479C;stroke-width:1.7036;stroke-miterlimit:3.8637;}
	.st9{fill:none;stroke:#48469C;stroke-width:1.7036;stroke-miterlimit:3.8637;}
	.st10{fill:none;stroke:#50439B;stroke-width:1.7036;stroke-miterlimit:3.8637;}
	.st11{fill:none;stroke:#56419A;stroke-width:1.7036;stroke-miterlimit:3.8637;}
	.st12{fill:none;stroke:#5D4099;stroke-width:1.7036;stroke-miterlimit:3.8637;}
	.st13{fill:none;stroke:#644099;stroke-width:1.7036;stroke-miterlimit:3.8637;}
	.st14{fill:none;stroke:#6B3E98;stroke-width:1.7036;stroke-miterlimit:3.8637;}
	.st15{fill:none;stroke:#723C97;stroke-width:1.7036;stroke-miterlimit:3.8637;}
	.st16{fill:none;stroke:#7A3A96;stroke-width:1.7036;stroke-miterlimit:3.8637;}
	.st17{fill:none;stroke:#813A96;stroke-width:1.7036;stroke-miterlimit:3.8637;}
	.st18{fill:none;stroke:#883894;stroke-width:1.7036;stroke-miterlimit:3.8637;}
	.st19{fill:none;stroke:#903694;stroke-width:1.7036;stroke-miterlimit:3.8637;}
	.st20{fill:none;stroke:#9A3493;stroke-width:1.7036;stroke-miterlimit:3.8637;}
	.st21{fill:none;stroke:#A33B96;stroke-width:1.7036;stroke-miterlimit:3.8637;}
	.st22{fill:none;}
	.st23{fill:#010101;}
	.st24{fill:#2BACE2;}
	.st25{fill:#FFFFFF;}
	.st26{fill:none;stroke:#00263A;stroke-width:0.6;stroke-miterlimit:10;}
	.st27{fill:#FDB520;stroke:#324056;stroke-width:0.25;stroke-miterlimit:3.8637;}
	.st28{fill:#010101;stroke:#010101;stroke-width:0.12;stroke-miterlimit:3.8637;}
	.st29{fill:#3953A4;stroke:#010101;stroke-width:0.25;stroke-miterlimit:3.8637;}
	.st30{fill:#FFFFFF;stroke:#010101;stroke-width:0.25;stroke-miterlimit:10;}
	.st31{fill:#F7F6F6;stroke:#010101;stroke-width:0.25;stroke-miterlimit:10;}
	.st32{fill:none;stroke:#010101;stroke-width:0.25;stroke-miterlimit:10;}
	.st33{fill:#3A3837;stroke:#3B3938;stroke-width:0.5;stroke-miterlimit:3.8637;}
	.st34{fill:#3A3837;}
	.st35{fill:none;stroke:#3B3938;stroke-width:0.75;stroke-miterlimit:3.8637;}
	.st36{fill:#1F2555;}
	.st37{fill:none;stroke:#1D293A;stroke-width:0.25;stroke-linecap:round;stroke-linejoin:round;stroke-miterlimit:10;}
</style><path
     id="Black_logo_2_"
     class="st0"
     d="M53.95,38.69l-20.76-9.33v26L53.95,38.69z M53.87,17.82L33.34,2.68v26L53.87,17.82z   M231.54,17.82L211.01,2.68v26L231.54,17.82z M231.62,38.69l-20.76-9.33v26L231.62,38.69z M178.67,56.51V1.46h58.73v20.72  l-5.63-4.13v20.49l5.71-4.59v22.48h-58.81V56.51z M175.74,32.2v24.31h-28.71c-5.09,0-9.72-1.22-14.12-3.75  c-4.32-2.45-7.8-5.89-10.42-10.17c-2.62-4.28-3.94-8.87-3.94-13.84c0-3.9,0.77-7.57,2.24-10.86c1.47-3.36,3.55-6.27,6.33-8.79  c2.78-2.52,5.94-4.51,9.57-5.81c3.63-1.38,7.56-1.99,11.81-1.99h27.01v24.08L150.73,2.22v53.22L175.74,32.2z M117.93,32.2v24.31  H89.22c-5.09,0-9.72-1.22-14.12-3.75c-4.32-2.45-7.8-5.89-10.42-10.17c-2.62-4.28-3.94-8.87-3.94-13.84c0-3.9,0.77-7.57,2.24-10.86  c1.47-3.36,3.55-6.27,6.33-8.79c2.78-2.52,5.94-4.51,9.57-5.81c3.63-1.38,7.56-1.99,11.81-1.99h27.01v24.08L92.92,2.22v53.22  L117.93,32.2z M1,56.51V1.46h58.73v20.72l-5.63-4.13v20.49l5.71-4.59v22.48H1V56.51z" /><g
     id="g57"><g
       id="g55"><defs
         id="defs6"><path
           id="SVGID_1_"
           d="M53.95,38.69l-20.76-9.33v26L53.95,38.69z M53.87,17.82L33.34,2.68v26L53.87,17.82z M231.54,17.82     L211.01,2.68v26L231.54,17.82z M231.62,38.69l-20.76-9.33v26L231.62,38.69z M178.67,56.51V1.46h58.73v20.72l-5.63-4.13v20.49     l5.71-4.59v22.48h-58.81V56.51z M175.74,32.2v24.31h-28.71c-5.09,0-9.72-1.22-14.12-3.75c-4.32-2.45-7.8-5.89-10.42-10.17     c-2.62-4.28-3.94-8.87-3.94-13.84c0-3.9,0.77-7.57,2.24-10.86c1.47-3.36,3.55-6.27,6.33-8.79c2.78-2.52,5.94-4.51,9.57-5.81     c3.63-1.38,7.56-1.99,11.81-1.99h27.01v24.08L150.73,2.22v53.22L175.74,32.2z M117.93,32.2v24.31H89.22     c-5.09,0-9.72-1.22-14.12-3.75c-4.32-2.45-7.8-5.89-10.42-10.17c-2.62-4.28-3.94-8.87-3.94-13.84c0-3.9,0.77-7.57,2.24-10.86     c1.47-3.36,3.55-6.27,6.33-8.79c2.78-2.52,5.94-4.51,9.57-5.81c3.63-1.38,7.56-1.99,11.81-1.99h27.01v24.08L92.92,2.22v53.22     L117.93,32.2z M1,56.51V1.46h58.73v20.72l-5.63-4.13v20.49l5.71-4.59v22.48H1V56.51z" /></defs><clipPath
         id="SVGID_2_"><use
           xlink:href="#SVGID_1_"
           style="overflow:visible;"
           id="use8" /></clipPath><g
         class="st1"
         clip-path="url(#SVGID_2_)"
         id="g53"><g
           id="g51"><path
             class="st2"
             d="M-120.95-22.32c19.99-4.36,96.32-122.56,174.43-91.6C131.59-83.03,232.78-31.49,181.06-3.36      s-36.35-8.79-125.03-0.38s-72.47,39.15-26.7,90.53s163.24,48.93,182.77,30.2"
             id="path11" /><path
             class="st3"
             d="M-122.26-25.23c15.28-2.98,57.58-54.9,105.04-78.75c21.84-11.01,45.61-16.52,69.77-7.95      c42.53,15.14,92.62,36.24,122.33,58.95c24.08,18.27,31.88,35.94,10.42,49.01c-26.55,15.52-34.73,12.54-50.17,7.8      c-12.97-3.75-31.64-8.56-71.08-4.66C36.35,1.92,18.6,6.66,8.49,13.31c-21.3,14.22-7.02,38.99,21.61,73.4      c3.63,4.43,7.72,8.49,12.35,12.16c48.62,38.54,149.42,39.91,167.79,20.72"
             id="path13" /><path
             class="st4"
             d="M-123.57-28.13c16.9-2.91,61.44-50.62,107.51-72.87c21.07-10.32,44.07-16.13,67.77-8.79      c41.52,13.07,91.07,31.65,123.1,54.74c26.24,18.73,34.81,37.01,14.74,50.62c-24.85,15.67-33.03,13.76-47.78,9.79      C129.2,2.38,110.67-1.6,72.24,2.3C45.15,5.13,27.16,9.72,16.36,15.76C-6.1,28.91,4.94,53.07,30.95,86.71      c3.24,4.36,7.02,8.41,11.27,12.16c45.23,38.38,147.26,44.73,166.25,23.4"
             id="path15" /><path
             class="st5"
             d="M-124.81-30.96c18.52-2.91,65.3-46.33,109.98-67.05c20.38-9.63,42.53-15.83,65.76-9.63      c40.6,11.09,89.53,26.99,123.88,50.54c28.4,19.11,37.74,38.08,19.06,52.22c-23.15,15.83-31.26,14.91-45.46,11.7      c-12.12-2.14-30.56-5.43-68-1.45C53.87,8.26,35.65,12.62,24.23,18.2C0.61,30.28,8.49,53.76,31.87,86.79      c2.86,4.36,6.33,8.41,10.27,12.16c41.83,38.23,145.18,49.47,164.7,26.07"
             id="path17" /><path
             class="st6"
             d="M-126.12-33.87c20.07-2.83,69.08-41.98,112.45-61.24c19.6-8.95,41.06-15.52,63.67-10.47      c39.67,9.02,87.99,22.4,124.65,46.33c30.64,19.57,40.6,39.07,23.39,53.83c-21.53,15.98-29.56,16.13-43.14,13.61      c-11.73-1.38-30.02-3.9-66.45,0.23c-26.01,2.98-44.38,7.11-56.5,12.23C7.1,31.58,11.81,54.44,32.64,86.79      c2.47,4.28,5.56,8.33,9.18,12.08c38.44,38.08,143.02,54.29,163.16,28.75"
             id="path19" /><path
             class="st7"
             d="M-127.43-36.77c21.69-2.83,72.94-37.69,114.92-55.43c18.83-8.26,39.52-15.14,61.67-11.39      c38.67,6.96,86.44,17.81,125.42,42.05c32.8,20.03,43.53,40.14,27.71,55.51c-19.91,16.21-27.86,17.36-40.83,15.52      c-11.35-0.61-29.41-2.29-64.91,1.84c-25.47,3.06-43.99,7.03-56.81,11.55C13.73,32.73,15.2,54.9,33.49,86.63      c2.16,4.28,4.86,8.26,8.1,12.08c35.04,37.92,140.93,59.1,161.62,31.42"
             id="path21" /><path
             class="st8"
             d="M-128.66-39.68c23.31-2.83,76.8-33.41,117.39-49.62c18.14-7.57,37.97-14.83,59.66-12.23      c37.74,4.89,84.9,13.23,126.19,37.85c34.96,20.49,46.46,41.13,32.11,57.11c-18.21,16.36-26.09,18.5-38.51,17.43      c-10.88,0.23-28.87-0.76-63.37,3.44c-24.85,3.06-43.61,6.88-57.11,10.93c-27.17,8.79-28.87,30.35-13.2,61.32      c1.78,4.21,4.17,8.26,7.02,12.08c31.64,37.77,138.77,63.84,160.07,34.1"
             id="path23" /><path
             class="st9"
             d="M-129.98-42.58c24.93-2.75,80.65-29.13,119.79-43.73c17.37-6.88,36.51-14.45,57.58-13.07      c36.74,2.91,83.36,8.64,126.96,33.64c37.2,20.87,49.32,42.21,36.43,58.72c-16.59,16.52-24.39,19.73-36.12,19.34      c-10.5,0.99-28.33,0.84-61.82,5.05c-24.31,3.13-43.3,6.8-57.42,10.25c-28.33,7.72-33.27,28.6-20.14,58.95      c1.39,4.21,3.4,8.18,6.02,12.08c28.25,37.62,136.69,68.66,158.53,36.78"
             id="path25" /><path
             class="st10"
             d="M-131.29-45.49c26.55-2.75,84.51-24.85,122.26-37.92C7.56-89.6,25.93-97.56,46.54-97.33      c35.81,0.84,81.81,4.05,127.73,29.36c39.36,21.33,52.25,43.28,40.75,60.33c-14.9,16.74-22.69,20.87-33.81,21.33      c-10.11,1.76-27.79,2.37-60.36,6.65C97.09,23.56,77.95,27,63.13,29.98c-29.56,6.65-37.66,26.84-27.17,56.58      c1,4.13,2.7,8.18,4.94,12.08c24.85,37.46,134.53,73.48,156.99,39.45"
             id="path27" /><path
             class="st11"
             d="M-132.52-48.39C-104.35-51.07-44.15-68.88-7.8-80.5c15.82-5.51,33.42-13.84,53.56-14.83      c34.81-1.22,80.27-0.54,128.58,25.15c41.6,21.79,55.18,44.27,45.07,62.01c-13.2,16.9-20.99,22.1-31.49,23.24      c-9.65,2.6-27.24,3.9-58.81,8.26c-23.23,3.29-42.53,6.5-58.04,9.02C40.36,37.85,29.02,57.5,36.97,86.48      c0.69,4.13,1.93,8.1,3.86,12.08c21.46,37.31,132.44,78.29,155.44,42.13"
             id="path29" /><path
             class="st12"
             d="M-133.84-51.22c29.79-2.68,92.23-16.21,127.19-26.3C8.49-82.34,25.23-90.98,44.84-93.2      c33.88-3.29,78.8-5.12,129.36,20.95c43.76,22.17,58.04,45.34,49.47,63.61c-11.58,17.05-19.22,23.32-29.17,25.15      c-9.26,3.36-26.7,5.51-57.27,9.94c-22.61,3.36-42.22,6.42-58.35,8.33C47,39.23,32.49,58.19,37.82,86.56      c0.31,4.05,1.23,8.1,2.78,12c18.14,37.16,130.28,83.03,153.9,44.8"
             id="path31" /><path
             class="st13"
             d="M-135.15-54.13c31.41-2.68,96.09-11.93,129.66-20.41c14.36-4.13,30.41-13.15,49.47-16.52      c32.88-5.35,77.26-9.71,130.13,16.74c45.92,22.63,60.97,46.41,53.8,65.22c-9.96,17.28-17.52,24.47-26.78,27.07      c-8.8,4.13-26.16,7.03-55.72,11.55c-22.07,3.44-41.83,6.27-58.66,7.72c-33.03,3.36-50.79,21.64-48.01,49.32      c-0.08,4.05,0.54,8.03,1.78,12c14.74,37.01,128.2,87.85,152.36,47.48"
             id="path33" /><path
             class="st14"
             d="M-136.38-57.03c32.96-2.6,99.95-7.65,132.13-14.6C9.34-75.08,24.62-84.4,43.22-88.99      c31.95-7.34,75.71-14.3,130.9,12.46c48.16,23.09,63.91,47.4,58.12,66.82c-8.26,17.43-15.82,25.69-24.47,28.98      c-8.41,4.97-25.62,8.64-54.18,13.15c-21.53,3.52-41.45,6.19-58.97,7.03C60.35,41.75,39.44,59.41,39.67,86.4      c-0.46,3.98-0.23,8.03,0.69,12c11.35,36.85,126.04,92.67,150.81,50.16"
             id="path35" /><path
             class="st15"
             d="M-137.69-59.94c34.58-2.6,103.81-3.29,134.53-8.79C9.64-71.48,24.15-81.19,42.29-87      c30.95-9.4,74.17-18.89,131.67,8.26c50.32,23.55,66.84,48.47,62.44,68.43c-6.64,17.59-14.05,26.91-22.15,30.97      c-8.03,5.73-25.01,10.17-52.64,14.76c-20.99,3.59-41.06,6.04-59.28,6.42c-35.43,1.22-59.51,18.2-61.98,44.58      c-0.77,3.98-0.93,7.95-0.39,12c7.95,36.7,123.95,97.41,149.27,52.83"
             id="path37" /><path
             class="st16"
             d="M-139.01-62.84c36.2-2.52,107.67,0.99,137-2.98c12.12-2.06,25.86-12.16,43.38-19.11      c30.02-11.47,72.63-23.47,132.44,4.05c52.56,23.93,69.69,49.47,66.76,70.11c-4.94,17.74-12.35,28.06-19.84,32.88      c-7.56,6.5-24.47,11.7-51.17,16.36c-20.45,3.67-40.75,5.96-59.58,5.73C73.4,44.28,46.07,60.64,41.06,86.33      c-1.16,3.9-1.62,7.95-1.47,12c4.55,36.55,121.79,102.23,147.72,55.51"
             id="path39" /><path
             class="st17"
             d="M-140.24-65.75c37.82-2.52,111.53,5.28,139.47,2.83c11.35-1.38,24.31-11.77,41.37-19.96      c29.1-13.53,71.08-28.14,133.21-0.15c54.72,24.39,72.63,50.54,71.16,71.72c-3.32,17.97-10.65,29.28-17.52,34.79      c-7.18,7.34-23.93,13.3-49.63,18.04c-19.84,3.75-40.37,5.81-59.89,5.12C80.19,45.65,49.62,61.33,42.06,86.4      c-1.54,3.9-2.39,7.88-2.47,12c1.16,36.39,119.71,107.04,146.18,58.19"
             id="path41" /><path
             class="st18"
             d="M-141.55-68.65c39.44-2.52,115.39,9.56,141.94,8.72c10.57-0.69,22.77-11.47,39.36-20.8      c28.09-15.52,69.54-32.72,133.99-4.43c56.88,24.85,75.56,51.61,75.48,73.32c-1.62,18.12-8.88,30.51-15.13,36.7      c-6.79,8.1-23.39,14.83-48.08,19.65c-19.3,3.82-39.98,5.66-60.2,4.51c-38.98-2.06-72.63,13-82.82,37.31      c-1.93,3.82-3.09,7.88-3.55,12c-2.24,36.24,117.55,111.78,144.64,60.86"
             id="path43" /><path
             class="st19"
             d="M-142.87-71.48c41.06-2.45,119.24,13.84,144.41,14.53c9.88,0,21.22-11.16,37.28-21.64      c27.17-17.59,68-37.31,134.76-8.64C232.7-62,251.99-34.63,253.38-12.3c0,18.27-7.18,31.65-12.81,38.61      c-6.33,8.95-22.85,16.44-46.54,21.26c-18.76,3.9-39.67,5.58-60.51,3.82c-40.13-3.13-77.03,11.24-89.76,34.94      c-2.24,3.82-3.86,7.8-4.63,11.93c-5.63,36.09,115.46,116.6,143.09,63.54"
             id="path45" /><path
             class="st20"
             d="M-144.1-74.39C-101.42-76.83-21-56.19,2.78-54.05c9.11,0.69,19.76-10.78,35.27-22.56      c26.16-19.65,66.53-41.9,135.53-12.85c61.28,25.69,81.35,53.67,84.13,76.54c1.7,18.5-5.48,32.88-10.5,40.52      c-5.94,9.71-22.31,17.97-45,22.86c-18.21,3.98-39.29,5.43-60.82,3.21c-41.29-4.21-81.43,9.48-96.79,32.49      c-2.62,3.75-4.55,7.8-5.71,11.93c-9.03,35.94,113.3,121.42,141.55,66.21"
             id="path47" /><path
             class="st21"
             d="M-145.41-77.29c44.3-2.37,126.96,22.48,149.27,26.15c22.31,3.75,55.65-87.39,169.57-40.45      c113.92,46.87,90.3,101.69,80.35,120.65c-10.03,19.04-55.03,33.26-104.58,27.07S48.93,68.74,38.74,98.18      c-12.43,35.78,111.22,126.16,140.01,68.89"
             id="path49" /></g></g></g></g><polygon
     class="st22"
     points="53.95,38.69 33.18,29.37 33.18,55.36 "
     id="polygon59" /><polygon
     class="st22"
     points="53.87,17.82 33.34,2.68 33.34,28.68 "
     id="polygon61" /><polygon
     class="st22"
     points="231.54,17.82 211.01,2.68 211.01,28.68 "
     id="polygon63" /><polygon
     class="st22"
     points="231.62,38.69 210.86,29.37 210.86,55.36 "
     id="polygon65" /><polygon
     class="st22"
     points="178.67,56.51 178.67,1.46 237.41,1.46 237.41,22.18 231.85,18.05 231.85,38.54 237.56,33.95   237.56,56.51 "
     id="polygon67" /><path
     class="st22"
     d="M175.74,32.2v24.31h-28.71c-5.09,0-9.72-1.22-14.12-3.75c-4.32-2.45-7.8-5.89-10.42-10.17  c-2.62-4.28-3.94-8.87-3.94-13.84c0-3.9,0.77-7.57,2.24-10.86c1.47-3.36,3.55-6.27,6.33-8.79c2.78-2.52,5.94-4.51,9.57-5.81  c3.63-1.38,7.56-1.99,11.81-1.99h27.01v24.08L150.73,2.22v53.22L175.74,32.2z"
     id="path69" /><path
     class="st22"
     d="M117.93,32.2v24.31H89.22c-5.09,0-9.72-1.22-14.12-3.75c-4.32-2.45-7.8-5.89-10.42-10.17  c-2.62-4.28-3.94-8.87-3.94-13.84c0-3.9,0.77-7.57,2.24-10.86c1.47-3.36,3.55-6.27,6.33-8.79c2.78-2.52,5.94-4.51,9.57-5.81  c3.63-1.38,7.56-1.99,11.81-1.99h27.01v24.08L92.92,2.22v53.22L117.93,32.2z"
     id="path71" /><polygon
     class="st22"
     points="1,56.51 1,1.46 59.66,1.46 59.66,22.18 54.1,18.05 54.1,38.54 59.81,33.95 59.81,56.51 "
     id="polygon73" /><path
     class="st24"
     d="M276.38,26.92"
     id="path141" /><polyline
     class="st26"
     points="285.95,31.28 296.45,29.37 309.8,26.77 323.08,23.94 336.35,20.96 349.55,17.82 353.95,16.83   358.35,15.99 362.75,15.37 367.22,14.92 371.7,14.69 376.1,14.61 380.65,14.76 385.13,15.07 389.53,15.53 394.01,16.22   398.41,17.13 402.73,18.13 407.05,19.35 411.3,20.8 415.62,22.41 419.55,24.09 "
     id="polyline169" /><polyline
     class="st26"
     points="284.8,36.78 300.08,33.8 315.36,30.59 330.64,27.3 345.85,23.86 360.97,20.19 365.53,19.43   370,18.81 374.48,18.43 379.03,18.36 383.59,18.36 388.06,18.43 392.62,18.81 397.09,19.43 401.57,20.19 406.2,21.19 410.37,22.26   414.85,23.63 419.01,25.08 "
     id="polyline171" /><path
     class="st26"
     d="M286.72,42.13l12.73-2.6l12.66-2.75l12.66-2.98l12.66-3.06l12.5-3.36l6.41-1.61l6.41-1.45l6.41-1.22l4.48-0.69  l4.63-0.54l4.32-0.31l4.55-0.15l4.48,0.08c0,0,3.4,0.15,4.48,0.23c1.16,0.08,3.55,0.38,4.71,0.54c1,0.15,3.94,0.54,3.94,0.54  s3.78,0.69,4.94,0.99c1.39,0.31,4.71,1.3,4.71,1.3l5.02,1.61"
     id="path173" /><path
     class="st26"
     d="M297.3,44.73l2.55-0.46l12.04-2.52l11.96-2.68l11.96-2.83l11.89-2.98l11.89-3.21l4.32-1.3l4.4-1.07l4.48-0.99  l4.48-0.69l4.48-0.54l4.55-0.38l4.48-0.23h4.55l4.71,0.23l4.55,0.38c0,0,3.78,0.46,4.94,0.61c1.16,0.15,5.02,0.99,5.02,0.99  l5.48,1.22"
     id="path175" /><path
     class="st26"
     d="M297.3,44.73"
     id="path177" /><path
     class="st26"
     d="M287.81,46.57"
     id="path179" /><path
     class="st26"
     d="M296.14,51.08l7.8-1.38l7.8-1.53l7.72-1.68l7.72-1.91l7.64-2.06l7.64-2.22l7.49-2.37l7.49-2.6l4.4-1.53  l4.48-1.3l4.55-1.15l4.55-0.99l4.55-0.76l4.63-0.61l4.71-0.38l4.63-0.23l4.71-0.08l4.48,0.08c0,0,4.32,0.23,5.63,0.31  c1.08,0.08,4.01,0.31,5.4,0.46c1.62,0.15,6.64,0.76,6.64,0.76"
     id="path181" /><path
     class="st26"
     d="M296.14,51.08"
     id="path183" /><path
     class="st26"
     d="M288.27,52.23"
     id="path185" /><g
     id="g195"><path
       class="st27"
       d="M247.83,56.43v-4.51l6.64-5.66c15.98-13.23,23.23-20.34,23.31-28.52c0-5.51-3.09-10.63-12.43-10.63   c-5.71,0-10.42,2.52-13.28,4.59l-2.7-5.2C253.69,3.29,259.87,1,267.12,1c13.51,0,19.22,8.03,19.22,15.83   c0,10.09-8.41,18.2-21.61,29.28l-5.02,4.05v0.15h28.17v6.12H247.83z"
       id="path187" /><path
       class="st27"
       d="M338.98,28.6c0,18.58-7.87,28.82-21.77,28.82c-12.27,0-20.53-10.02-20.76-28.06   c0-18.27,9.03-28.37,21.77-28.37C331.41,1,338.98,11.25,338.98,28.6z M304.86,29.44c0,14.22,5.02,22.25,12.73,22.25   c8.64,0,12.81-8.79,12.81-22.71c0-13.46-3.94-22.25-12.73-22.25C310.27,6.66,304.86,14.61,304.86,29.44z"
       id="path189" /><path
       class="st27"
       d="M346.77,56.43v-4.51l6.64-5.66c15.98-13.23,23.23-20.34,23.31-28.52c0-5.51-3.09-10.63-12.43-10.63   c-5.71,0-10.42,2.52-13.28,4.59l-2.7-5.2C352.64,3.29,358.81,1,366.07,1c13.51,0,19.22,8.03,19.22,15.83   c0,10.09-8.41,18.2-21.61,29.28l-5.02,4.05v0.15h28.17v6.12H346.77z"
       id="path191" /><path
       class="st27"
       d="M437.92,28.6c0,18.58-7.87,28.82-21.77,28.82c-12.27,0-20.53-10.02-20.76-28.06   C395.4,11.09,404.43,1,417.16,1C430.36,1,437.92,11.25,437.92,28.6z M403.81,29.44c0,14.22,5.02,22.25,12.73,22.25   c8.64,0,12.81-8.79,12.81-22.71c0-13.46-3.94-22.25-12.73-22.25C409.21,6.66,403.81,14.61,403.81,29.44z"
       id="path193" /></g><path
     class="st29"
     d="M421.71,35.87c1.16,1.68,3.01,2.6,5.02,2.6c2.01,0,3.94-1.07,5.09-2.68l0,0v6.04h-10.11V35.87"
     id="path257" /><path
     class="st29"
     d="M416,46.03v1.07h21.92v-0.99c0-1.91-1.54-3.44-3.47-3.44l0,0h-15.13C417.55,42.67,416,44.2,416,46.03"
     id="path259" /><path
     class="st29"
     d="M431.59,32.35c0-2.68-2.16-4.82-4.86-4.82c-2.7,0-4.86,2.14-4.86,4.82s2.16,4.82,4.86,4.82  C429.43,37.17,431.59,35.02,431.59,32.35"
     id="path261" /><path
     class="st30"
     d="M430.13,32.35c0-1.84-1.54-3.36-3.4-3.36c-1.85,0-3.4,1.53-3.4,3.36c0,1.84,1.54,3.36,3.4,3.36  C428.58,35.71,430.13,34.18,430.13,32.35"
     id="path263" /><path
     class="st29"
     d="M422.95,17.97c0-2.37-1.93-4.21-4.24-4.21c-2.32,0-4.24,1.91-4.24,4.21s1.93,4.21,4.24,4.21  C421.02,22.18,422.95,20.27,422.95,17.97"
     id="path265" /><path
     class="st30"
     d="M421.56,17.97c0-1.53-1.23-2.83-2.86-2.83c-1.62,0-2.86,1.22-2.86,2.83c0,1.61,1.23,2.83,2.86,2.83  C420.33,20.8,421.56,19.5,421.56,17.97"
     id="path267" /><path
     class="st29"
     d="M404.66,13.85c0-1.38-1.16-2.52-2.55-2.52s-2.55,1.15-2.55,2.52s1.16,2.52,2.55,2.52  C403.5,16.37,404.66,15.22,404.66,13.85"
     id="path269" /><path
     class="st31"
     d="M403.58,13.85c0-0.84-0.69-1.45-1.47-1.45c-0.85,0-1.47,0.69-1.47,1.45c0,0.84,0.69,1.45,1.47,1.45  C402.96,15.3,403.58,14.61,403.58,13.85"
     id="path271" /><path
     class="st32"
     d="M438,46.11"
     id="path273" /><path
     class="st32"
     d="M438,47.1"
     id="path275" /><path
     class="st32"
     d="M416,47.1"
     id="path277" /><path
     class="st32"
     d="M419.48,42.67"
     id="path279" /><path
     class="st32"
     d="M434.45,42.67"
     id="path281" /><path
     class="st32"
     d="M416,47.1"
     id="path283" /><path
     class="st32"
     d="M416,46.11"
     id="path285" /><polyline
     class="st29"
     points="416,48.02 438,48.02 438,57.35 416,57.35 416,48.02 "
     id="polyline287" /><path
     class="st29"
     d="M429.12,32.35c0-1.3-1.08-2.37-2.39-2.37s-2.39,1.07-2.39,2.37c0,1.3,1.08,2.37,2.39,2.37  S429.12,33.65,429.12,32.35"
     id="path289" /><path
     class="st29"
     d="M420.71,17.97c0-1.07-0.93-1.99-2.01-1.99c-1.08,0-2.01,0.92-2.01,1.99c0,1.07,0.93,1.99,2.01,1.99  C419.79,19.96,420.71,19.04,420.71,17.97"
     id="path291" /><path
     class="st29"
     d="M420.71,31.05l-3.78-8.18h-0.08c1.47,0.54,3.01,0.46,4.4-0.31c1.39-0.76,2.32-1.99,2.62-3.44l0.08,0.08  l4.86,7.49l0,0c-1.7-0.61-3.47-0.46-5.02,0.38C422.26,27.91,421.1,29.29,420.71,31.05"
     id="path293" /><path
     class="st29"
     d="M403.19,13.85c0-0.61-0.46-1.07-1.08-1.07c-0.62,0-1.08,0.46-1.08,1.07c0,0.61,0.46,1.07,1.08,1.07  S403.19,14.46,403.19,13.85"
     id="path295" /><path
     class="st29"
     d="M416.31,13.31l-12.19-1.76l0,0c0.85,0.76,1.23,1.91,0.93,2.98c-0.31,1.07-1.08,1.91-2.16,2.14l0,0l11.5,4.13  c-0.85-1.22-1.08-2.75-0.69-4.21C414,15.22,414.92,14.07,416.31,13.31"
     id="path297" /><line
     class="st32"
     x1="240.18"
     y1="43.74"
     x2="240.18"
     y2="43.74"
     id="line299" /><path
     class="st29"
     d="M400.49,16.29l-5.94-0.15l-0.23-3.59l5.87-0.92l0,0c-0.69,0.61-1,1.45-1,2.37S399.64,15.76,400.49,16.29"
     id="path301" /><polygon
     class="st29"
     points="393.31,13.62 390.22,14.07 390.3,14.99 393.39,15.07 "
     id="polygon303" /><polyline
     class="st33"
     points="346.23,21.64 346.46,21.64 347.85,33.8 347.54,33.8 346.23,21.64 "
     id="polyline305" /><polyline
     class="st33"
     points="355.03,22.33 355.34,22.33 356.65,34.41 356.42,34.41 355.03,22.33 "
     id="polyline307" /><path
     class="st34"
     d="M350.71,19.58c-0.31-0.76-1.62-0.92-2.93-0.38c-1.31,0.54-2.08,1.61-1.78,2.45c0.31,0.84,1.62,0.92,2.93,0.38  C350.17,21.41,351.02,20.34,350.71,19.58"
     id="path309" /><path
     class="st34"
     d="M359.58,20.19c-0.31-0.76-1.62-0.92-2.93-0.38c-1.31,0.54-2.08,1.61-1.78,2.45c0.31,0.76,1.62,0.92,2.93,0.38  C359.12,22.03,359.89,20.96,359.58,20.19"
     id="path311" /><line
     class="st35"
     x1="347.7"
     y1="33.65"
     x2="356.81"
     y2="34.41"
     id="line313" /><path
     class="st34"
     d="M364.45,28.14c0,0.76,1,1.3,2.24,1.22c1.23-0.08,2.24-0.69,2.16-1.45c0-0.76-1-1.3-2.24-1.22  C365.45,26.69,364.45,27.38,364.45,28.14"
     id="path315" /><line
     class="st35"
     x1="368.61"
     y1="27.53"
     x2="371.55"
     y2="16.52"
     id="line317" /><path
     class="st34"
     d="M405.58,27.38c0.08,0.46,0.69,0.69,1.39,0.61c0.69-0.08,1.23-0.54,1.23-0.99c-0.08-0.46-0.69-0.69-1.39-0.61  C406.05,26.54,405.51,26.92,405.58,27.38"
     id="path319" /><line
     class="st35"
     x1="407.9"
     y1="26.92"
     x2="409.06"
     y2="20.19"
     id="line321" /><path
     class="st34"
     d="M393.78,18.59c-0.08-0.54-0.85-0.84-1.78-0.69s-1.54,0.69-1.47,1.22c0.08,0.54,0.85,0.84,1.78,0.69  C393.23,19.73,393.85,19.12,393.78,18.59"
     id="path323" /><line
     class="st35"
     x1="390.84"
     y1="18.97"
     x2="389.84"
     y2="27.07"
     id="line325" /><g
     id="Layer_1_1_"><g
       id="g358"><g
         id="XMLID_1_"><g
           id="g355"><path
             class="st36"
             d="M326.55,40.38c1.78,0,3.16,2.22,3.16,5.05c0,2.75-1.39,5.05-3.16,5.05s-3.16-2.22-3.16-5.05      C323.39,42.67,324.78,40.38,326.55,40.38z M327.86,45.5c0-1.84-0.62-3.29-1.31-3.29c-0.77,0-1.31,1.45-1.31,3.29      c0,1.84,0.62,3.29,1.31,3.29C327.32,48.71,327.86,47.26,327.86,45.5z"
             id="path327" /><path
             class="st36"
             d="M310.96,25.08c-2.08,0.15-4.01,1.15-5.4,2.68l0,0l-1.31,1.38l-1.23,1.45l-1.23,1.45l-1.23,1.53l-1.16,1.53      l3.4-0.54l3.4-0.54h2.93l0,0c0.08-0.08,0.15-0.15,0.15-0.31l0,0c0-0.08,0-0.08,0-0.15l4.17-0.61l0.31-0.08l0.93-0.15l0.77-0.15      l0.39-0.08l1.16-0.23l1.16-0.31l1.16-0.31l0.69-0.23l0.62-0.23l0.62-0.31l0.62-0.31l0.62-0.31l0.62-0.38l0.54-0.38l0,0      c-1.16-1.76-2.86-3.06-4.86-3.82l0,0l-0.93-0.23l-1-0.23l-0.93-0.15l-1-0.15l-1-0.08h-0.31h-0.69h-0.62h-0.39L310.96,25.08      L310.96,25.08z M275.3,52.38h-0.15l-2.32-0.23h-0.39l-1.93-0.23l0,0c-1.08-0.38-1.93-1.38-2.01-2.52l0,0      c0-2.06,0.54-4.05,1.47-5.81c0.15-0.38,0.39-0.69,0.62-0.99l0,0l0.54-0.92l0.46-0.99l1.47-3.29l2.16-1.07l2.16-1.15l1.39-0.76      l0,0l1.54,0.54l13.2-0.46l4.55-1.53l1.08-1.15l1.08-1.07l1.16-1.07l1.16-1.07l1.16-0.99l1.16-0.99l1.23-0.99l-1.54-0.08h-1.54      h-1.54l-1.31,0.08l-1.31,0.08l-1.31,0.15L296.22,26l-1.31,0.15l-1.31,0.23l-1.31,0.23l-1.31,0.31l-1.23,0.31l0,0      c0.77-0.46,1.54-0.84,2.39-1.22l0,0l1.47-0.38l1.47-0.38l1.47-0.31l1.54-0.31l1.54-0.23l1.54-0.23l1.54-0.15l1.54-0.15      l1.54-0.08h1.54h1.54l1.54,0.08l1.54,0.08l1.54,0.15l1.54,0.15l1.54,0.23l1.54,0.23l1.47,0.31l0,0c4.48,1.3,7.72,5.12,8.26,9.63      l0,0c0.69,2.14,1.23,4.36,1.47,6.65l0,0c-0.46-0.92-1.39-1.45-2.39-1.53c-1-0.08-2.01,0.38-2.55,1.22l0,0      c-1.31,1.76-1.7,4.05-1.08,6.19l0,0l-19.45,3.52l0,0c0.23-2.14-0.39-4.36-1.62-6.12l0,0c-0.77-0.99-1.93-1.53-3.16-1.61      c-1.23-0.08-2.39,0.46-3.24,1.38l0,0c-1.93,2.22-2.62,5.28-1.85,8.1l0,0l-2.32,0.15l-2.32,0.08l-2.32,0.08h-2.32l-2.32-0.08      l-2.24-0.08h-0.15l-2.32-0.15h-0.31L275.3,52.38z M290.89,42.06c1.47-1.3,2.39-3.06,2.55-4.97l0,0c-0.46-0.31-1-0.31-1.54-0.15      l0,0l-1,0.38l-1,0.38l-1,0.38l-1,0.46l-1,0.46l-0.93,0.54l-0.93,0.54l-0.93,0.54c0.23,0.99,1,1.76,1.93,2.06l0,0h0.77l0.77-0.08      l0.77-0.08l0.77-0.15l0.77-0.15L290.89,42.06L290.89,42.06z"
             id="path329" /><path
             class="st25"
             d="M326.55,42.21c0.77,0,1.31,1.45,1.31,3.29c0,1.84-0.62,3.29-1.31,3.29c-0.77,0-1.31-1.45-1.31-3.29      C325.24,43.66,325.86,42.21,326.55,42.21z"
             id="path331" /><path
             class="st25"
             d="M323.62,29.75L323.62,29.75l-0.54,0.38l-0.62,0.38l-0.62,0.31l-0.62,0.31l-0.62,0.31l-0.62,0.23      l-0.69,0.23l-1.16,0.31l-1.16,0.31l-1.16,0.23l-0.39,0.08l-0.15-0.99l-0.15-0.99l-0.23-0.99l-0.23-0.92l-0.23-0.92l-0.31-0.92      l-0.31-0.92l-0.39-0.92l0,0h0.31l1,0.08l1,0.15l0.93,0.15l1,0.23l0.93,0.23l0,0C320.68,26.69,322.38,27.99,323.62,29.75z"
             id="path333" /><polygon
             class="st36"
             points="315.36,31.74 315.51,32.73 314.74,32.88 313.82,32.96 313.74,31.81 313.58,30.67 313.43,29.6       313.2,28.45 312.97,27.3 312.66,26.23 312.35,25.08 312.35,25.08 312.97,25.08 313.66,25.16 313.58,25.16 313.97,26.08       314.28,27 314.59,27.91 314.82,28.83 315.05,29.82 315.28,30.74     "
             id="polygon335" /><path
             class="st25"
             d="M307.72,31.43c-0.93-0.23-1.93-0.31-2.93-0.23l0,0l-0.85,1.53l0,0c-0.23,0.46-0.39,0.92-0.46,1.38l0,0      h2.78l-3.4,0.54l-3.4,0.54l1.16-1.53l1.23-1.53l1.23-1.45l1.23-1.45l1.31-1.38l0,0c1.39-1.53,3.32-2.52,5.4-2.68l0,0h1h0.39l0,0      l0.31,1.15l0.31,1.15l0.23,1.15l0.23,1.15l0.15,1.15l0.15,1.15l0.08,1.15l-0.31,0.08l-4.17,0.61c0-0.54-0.15-0.99-0.54-1.45      C308.57,31.81,308.18,31.58,307.72,31.43L307.72,31.43z"
             id="path337" /><path
             class="st36"
             d="M309.34,33.8L309.34,33.8c0,0.15-0.08,0.23-0.15,0.31l0,0h-2.93h-2.78l0,0c0.08-0.46,0.23-0.92,0.46-1.38      l0,0l0.85-1.53l0,0c1-0.08,1.93,0,2.93,0.23l0,0c0.46,0.15,0.85,0.38,1.16,0.76s0.54,0.92,0.54,1.45      C309.34,33.65,309.34,33.72,309.34,33.8z"
             id="path339" /><path
             class="st25"
             d="M305.94,25.7l-1.23,0.99l-1.16,0.99l-1.16,0.99l-1.16,1.07l-1.16,1.07L299,31.89l-1.08,1.15l-4.55,1.53      l-13.2,0.46l-1.54-0.54l0,0l0.77-0.38l1.39-0.84l1.39-0.84l1.39-0.84l1.39-0.92l1.31-0.92l1.31-0.92l0,0      c0.69-0.54,1.47-0.99,2.24-1.45l0,0l1.23-0.31l1.31-0.31l1.31-0.23l1.31-0.23l1.31-0.15l1.31-0.15l1.31-0.15l1.31-0.08      l1.31-0.08h1.54h1.54L305.94,25.7z"
             id="path341" /><path
             class="st36"
             d="M303.16,50.09c0.08,3.52-1.93,6.35-4.4,6.42c-2.47,0-4.55-2.75-4.55-6.27c-0.08-3.52,1.93-6.35,4.4-6.42      C301.08,43.82,303.16,46.57,303.16,50.09z M298.69,54.22c1.16,0,2.08-1.84,2.08-4.13c-0.08-2.22-1-4.05-2.24-4.05      c-1.16,0-2.08,1.84-2.08,4.13C296.53,52.46,297.53,54.22,298.69,54.22z"
             id="path343" /><path
             class="st25"
             d="M300.77,50.09c0.08,2.22-0.85,4.13-2.08,4.13c-1.16,0-2.16-1.76-2.24-4.05c-0.08-2.22,0.85-4.13,2.08-4.13      C299.77,46.03,300.77,47.87,300.77,50.09z"
             id="path345" /><path
             class="st25"
             d="M293.44,37.09L293.44,37.09c-0.15,1.91-1.08,3.67-2.55,4.97l0,0l-0.77,0.15l-0.77,0.15l-0.77,0.15      l-0.77,0.08l-0.77,0.08h-0.77l0,0c-1-0.23-1.78-1.07-1.93-2.06l0.93-0.54l0.93-0.54l0.93-0.54l1-0.46l1-0.46l1-0.38l1-0.38      l1-0.38l0,0C292.44,36.78,292.98,36.86,293.44,37.09z"
             id="path347" /><path
             class="st36"
             d="M279.78,52.69h0.15c-0.62,1.61-2.24,2.6-3.94,2.45s-3.16-1.3-3.55-2.98h0.39l2.32,0.23h0.15      c0.23,0.23,0.54,0.46,0.93,0.46c0.39,0,0.69-0.08,0.93-0.31h0.31L279.78,52.69z"
             id="path349" /><path
             class="st25"
             d="M275.3,52.38l1.85,0.15c-0.23,0.23-0.62,0.38-0.93,0.31C275.84,52.84,275.53,52.69,275.3,52.38z"
             id="path351" /><path
             class="st25"
             d="M273.06,37.47L273.06,37.47l-1.47,3.29l-0.46,0.99l-0.54,0.92l0,0c-0.23,0.31-0.39,0.69-0.62,0.99l0,0      l0.23-1.15l0.23-1.15l0.31-1.07l0.31-1.07l0,0C271.52,38.54,272.21,37.93,273.06,37.47z"
             id="path353" /></g></g></g></g><g
     id="Layer_1_copy"><g
       id="g453"><polyline
         class="st37"
         points="319.37,25.16 317.91,24.86 316.44,24.63 314.9,24.4 313.35,24.24 311.89,24.09 310.34,24.01     308.8,24.01 307.26,23.94 305.79,24.01 304.24,24.09 302.7,24.17 301.16,24.32 299.69,24.55 298.15,24.78 296.68,25.01     295.21,25.31 293.67,25.7 292.2,26.08   "
         id="polyline361" /><path
         class="st37"
         d="M327.71,34.79c-0.62-4.59-3.86-8.33-8.26-9.63"
         id="path363" /><polyline
         class="st37"
         points="273.06,37.47 275.15,36.4 277.31,35.25 279.39,34.11 280.86,33.27 282.25,32.42 283.56,31.58     284.95,30.67 286.26,29.75 287.57,28.75   "
         id="polyline365" /><path
         class="st37"
         d="M292.2,26.08c-1.62,0.76-3.16,1.61-4.63,2.68"
         id="path367" /><line
         class="st37"
         x1="303.63"
         y1="50.77"
         x2="323.08"
         y2="47.26"
         id="line369" /><polyline
         class="st37"
         points="273.06,37.47 271.52,40.76 271.06,41.75 270.59,42.67   "
         id="polyline371" /><path
         class="st37"
         d="M270.59,42.67c-1.31,2.06-2.08,4.43-2.08,6.8"
         id="path373" /><path
         class="st37"
         d="M268.43,49.47c0.08,1.15,0.93,2.14,2.01,2.52"
         id="path375" /><polyline
         class="st37"
         points="270.98,39.31 270.67,40.38 270.44,41.45 270.13,42.59 269.98,43.66   "
         id="polyline377" /><path
         class="st37"
         d="M273.06,37.47c-0.77,0.46-1.47,1.07-2.01,1.76"
         id="path379" /><polyline
         class="st37"
         points="291.9,36.94 290.89,37.32 289.89,37.62 288.89,38.08 287.96,38.54 286.96,39 286.03,39.46     285.1,39.99 284.18,40.61   "
         id="polyline381" /><path
         class="st37"
         d="M293.44,37.09c-0.46-0.31-1-0.31-1.54-0.15"
         id="path383" /><path
         class="st37"
         d="M284.18,40.53c0.23,0.99,1,1.76,1.93,2.06"
         id="path385" /><polyline
         class="st37"
         points="286.11,42.59 286.96,42.59 287.73,42.59 288.58,42.52 289.35,42.36 290.12,42.21 290.89,42.06       "
         id="polyline387" /><path
         class="st37"
         d="M290.89,42.06c1.47-1.3,2.39-3.06,2.55-4.97"
         id="path389" /><polyline
         class="st37"
         points="278.7,34.49 280.24,35.02 293.36,34.57 297.92,33.04   "
         id="polyline391" /><polyline
         class="st37"
         points="305.94,25.7 304.48,25.7 302.93,25.62 301.39,25.7 300.08,25.7 298.84,25.77 297.53,25.93     296.22,26.08 294.91,26.23 293.67,26.46 292.36,26.69 291.12,27 289.81,27.3   "
         id="polyline393" /><polyline
         class="st37"
         points="270.44,52 272.76,52.23 275.07,52.38 277.46,52.53 279.78,52.69 282.09,52.76 284.41,52.76     286.8,52.76 289.12,52.76 291.43,52.69 293.75,52.53   "
         id="polyline395" /><polyline
         class="st37"
         points="305.94,25.7 304.71,26.69 303.55,27.68 302.39,28.68 301.23,29.75 300.08,30.82 299,31.89     297.92,33.04   "
         id="polyline397" /><polyline
         class="st37"
         points="306.25,34.11 302.78,34.64 299.38,35.18   "
         id="polyline399" /><polyline
         class="st37"
         points="309.34,33.65 313.58,33.04 314.74,32.88 315.9,32.65 316.98,32.42 318.14,32.12 319.3,31.81     319.91,31.66 320.61,31.35 321.22,31.12 321.84,30.82 322.46,30.51 323,30.13 323.62,29.75   "
         id="polyline401" /><path
         class="st37"
         d="M323.62,29.75c-1.16-1.76-2.86-3.06-4.86-3.82"
         id="path403" /><polyline
         class="st37"
         points="318.76,25.93 317.75,25.7 316.83,25.47 315.9,25.31 314.9,25.24 313.89,25.16 312.97,25.08     311.96,25.08 310.96,25.08   "
         id="polyline405" /><path
         class="st37"
         d="M310.96,25.08c-2.08,0.15-4.01,1.15-5.4,2.68"
         id="path407" /><polyline
         class="st37"
         points="305.56,27.84 304.24,29.21 303.01,30.67 301.78,32.12 300.54,33.65 299.38,35.18   "
         id="polyline409" /><polyline
         class="st37"
         points="313.82,32.96 313.74,31.81 313.58,30.67 313.43,29.6 313.2,28.45 312.97,27.3 312.66,26.23     312.35,25.08   "
         id="polyline411" /><polyline
         class="st37"
         points="315.51,32.73 315.36,31.74 315.28,30.74 315.05,29.82 314.82,28.83 314.59,27.91 314.28,27     313.97,26.08 313.58,25.16   "
         id="polyline413" /><path
         class="st37"
         d="M329.17,41.45c-0.23-2.29-0.69-4.51-1.47-6.65"
         id="path415" /><line
         class="st37"
         x1="303.94"
         y1="32.73"
         x2="304.79"
         y2="31.2"
         id="line417" /><path
         class="st37"
         d="M307.72,31.43c-0.93-0.23-1.93-0.31-2.93-0.23"
         id="path419" /><path
         class="st37"
         d="M308.88,32.2c-0.31-0.38-0.69-0.61-1.16-0.76"
         id="path421" /><path
         class="st37"
         d="M309.34,33.8c0.08-0.54-0.15-1.15-0.54-1.61"
         id="path423" /><path
         class="st37"
         d="M309.18,34.11c0.08-0.08,0.15-0.15,0.15-0.31"
         id="path425" /><line
         class="st37"
         x1="309.18"
         y1="34.11"
         x2="303.47"
         y2="34.11"
         id="line427" /><path
         class="st37"
         d="M303.94,32.65c-0.23,0.46-0.46,0.92-0.54,1.45"
         id="path429" /><path
         class="st37"
         d="M275.3,52.38c0.23,0.31,0.54,0.46,0.93,0.46c0.39,0,0.69-0.08,0.93-0.31"
         id="path431" /><path
         class="st37"
         d="M272.45,52.15c0.39,1.68,1.85,2.83,3.55,2.98s3.32-0.92,3.94-2.45"
         id="path433" /><path
         class="st37"
         d="M295.6,44.43c-1.93,2.22-2.62,5.28-1.85,8.1"
         id="path435" /><path
         class="st37"
         d="M302.01,44.66c-0.77-0.99-1.93-1.53-3.16-1.61c-1.23-0.08-2.39,0.46-3.24,1.38"
         id="path437" /><path
         class="st37"
         d="M303.63,50.77c0.23-2.14-0.39-4.36-1.62-6.12"
         id="path439" /><path
         class="st37"
         d="M298.53,46.03c-1.16,0-2.08,1.84-2.08,4.13c0.08,2.22,1,4.05,2.24,4.05c1.16,0,2.08-1.84,2.08-4.13    C300.77,47.87,299.77,46.03,298.53,46.03"
         id="path441" /><path
         class="st37"
         d="M298.61,43.82c-2.47,0-4.48,2.91-4.4,6.42c0.08,3.52,2.08,6.35,4.55,6.27s4.48-2.91,4.4-6.42    C303.16,46.57,301.08,43.82,298.61,43.82"
         id="path443" /><path
         class="st37"
         d="M326.55,42.21c-0.77,0-1.31,1.45-1.31,3.29c0,1.84,0.62,3.29,1.31,3.29c0.77,0,1.31-1.45,1.31-3.29    C327.86,43.66,327.32,42.21,326.55,42.21"
         id="path445" /><path
         class="st37"
         d="M326.55,40.38c-1.78,0-3.16,2.22-3.16,5.05c0,2.75,1.39,5.05,3.16,5.05s3.16-2.22,3.16-5.05    C329.71,42.67,328.33,40.38,326.55,40.38"
         id="path447" /><path
         class="st37"
         d="M324.16,41.14c-1.31,1.76-1.7,4.05-1.08,6.19"
         id="path449" /><path
         class="st37"
         d="M329.17,41.45c-0.46-0.92-1.39-1.45-2.39-1.53c-1-0.08-2.01,0.38-2.55,1.22"
         id="path451" /></g></g></svg>